# xmcd CD database file
#
# Track frame offsets:
#	150
#	13800
#	42631
#	59347
#	86962
#	101011
#	120720
#	141814
#	157952
#	180766
#	198915
#	212174
#	227598
#	243220
#
# Disc length: 3479 seconds
#
# Revision: 2
# Processed by: cddbd v1.5.2PL0 Copyright (c) Steve Scherf et al.
# Submitted via: CDex 1.51
#
DISCID=bb0d950e
DTITLE=The Dubliners - All The Great Songs Live CD2
DYEAR=2006
DGENRE=Folk
TTITLE0=01 Kelly The Boy From Killane
TTITLE1=02 Fiddler's Green
TTITLE2=03 All For Me Grog
TTITLE3=04 The Three Sea Captains - The Mullingar Races
TTITLE4=05 The Rocky Road To Dublin
TTITLE5=06 Finnegan's Wake
TTITLE6=07 The Leaving Of Liverpool
TTITLE7=08 The Marino Waltz
TTITLE8=09 The Foxrock Hornpipe - Ostinelli's Hornpipe
TTITLE9=10 Dirty Old Town
TTITLE10=11 Whiskey In The Jar
TTITLE11=12 The Wild Rover
TTITLE12=13 Molly Malone
TTITLE13=14 The Irish Rover
EXTD=YEAR: 2006
EXTT0=
EXTT1=
EXTT2=
EXTT3=
EXTT4=
EXTT5=
EXTT6=
EXTT7=
EXTT8=
EXTT9=
EXTT10=
EXTT11=
EXTT12=
EXTT13=
PLAYORDER=
